<mxfile host="app.diagrams.net" modified="2020-10-17T16:28:15.649Z" agent="5.0 (Windows NT 10.0; Win64; x64) AppleWebKit/537.36 (KHTML, like Gecko) Chrome/86.0.4240.80 Safari/537.36 Edg/86.0.622.43" etag="TjpM69TThvUXjik_aPAv" version="13.8.0" type="github">
  <diagram id="_0S1Eu3I8zuwVnwXYtsV" name="Page-1">
    <mxGraphModel dx="768" dy="415" grid="1" gridSize="10" guides="1" tooltips="1" connect="1" arrows="1" fold="1" page="1" pageScale="1" pageWidth="850" pageHeight="1100" background="#F1FAEE" math="0" shadow="0">
      <root>
        <mxCell id="0" />
        <mxCell id="1" parent="0" />
        <mxCell id="t91lsTx7yEC4QI36TYoj-1" value="Admin&lt;br&gt;" style="shape=umlActor;verticalLabelPosition=bottom;verticalAlign=top;html=1;outlineConnect=0;fillColor=#A8DADC;strokeColor=#457B9D;fontColor=#1D3557;" parent="1" vertex="1">
          <mxGeometry x="50" y="300" width="30" height="120" as="geometry" />
        </mxCell>
        <mxCell id="t91lsTx7yEC4QI36TYoj-2" value="Chức năng nhập dữ liệu" style="ellipse;whiteSpace=wrap;html=1;fillColor=#A8DADC;strokeColor=#457B9D;fontColor=#1D3557;" parent="1" vertex="1">
          <mxGeometry x="190" y="80" width="150" height="70" as="geometry" />
        </mxCell>
        <mxCell id="t91lsTx7yEC4QI36TYoj-4" value="Chúc năng quan lý người dùng" style="ellipse;whiteSpace=wrap;html=1;fillColor=#A8DADC;strokeColor=#457B9D;fontColor=#1D3557;" parent="1" vertex="1">
          <mxGeometry x="190" y="230" width="150" height="70" as="geometry" />
        </mxCell>
        <mxCell id="t91lsTx7yEC4QI36TYoj-5" value="Chức năng tìm kiếm" style="ellipse;whiteSpace=wrap;html=1;fillColor=#A8DADC;strokeColor=#457B9D;fontColor=#1D3557;" parent="1" vertex="1">
          <mxGeometry x="190" y="400" width="150" height="70" as="geometry" />
        </mxCell>
        <mxCell id="t91lsTx7yEC4QI36TYoj-6" value="Chức năng thống kê" style="ellipse;whiteSpace=wrap;html=1;fillColor=#A8DADC;strokeColor=#457B9D;fontColor=#1D3557;" parent="1" vertex="1">
          <mxGeometry x="190" y="550" width="150" height="70" as="geometry" />
        </mxCell>
        <mxCell id="t91lsTx7yEC4QI36TYoj-7" value="Chức năng thêm người dùng" style="ellipse;whiteSpace=wrap;html=1;fillColor=#A8DADC;strokeColor=#457B9D;fontColor=#1D3557;" parent="1" vertex="1">
          <mxGeometry x="510" y="110" width="150" height="70" as="geometry" />
        </mxCell>
        <mxCell id="t91lsTx7yEC4QI36TYoj-8" value="Chức năng xóa người dùng" style="ellipse;whiteSpace=wrap;html=1;fillColor=#A8DADC;strokeColor=#457B9D;fontColor=#1D3557;" parent="1" vertex="1">
          <mxGeometry x="510" y="230" width="150" height="70" as="geometry" />
        </mxCell>
        <mxCell id="t91lsTx7yEC4QI36TYoj-9" value="Chức năng xem DS người dùng" style="ellipse;whiteSpace=wrap;html=1;fillColor=#A8DADC;strokeColor=#457B9D;fontColor=#1D3557;" parent="1" vertex="1">
          <mxGeometry x="520" y="400" width="150" height="70" as="geometry" />
        </mxCell>
        <mxCell id="t91lsTx7yEC4QI36TYoj-10" value="" style="endArrow=none;html=1;strokeColor=#457B9D;fontColor=#1D3557;labelBackgroundColor=#F1FAEE;" parent="1" target="t91lsTx7yEC4QI36TYoj-2" edge="1">
          <mxGeometry width="50" height="50" relative="1" as="geometry">
            <mxPoint x="80" y="330" as="sourcePoint" />
            <mxPoint x="130" y="280" as="targetPoint" />
            <Array as="points" />
          </mxGeometry>
        </mxCell>
        <mxCell id="t91lsTx7yEC4QI36TYoj-11" value="" style="endArrow=none;html=1;strokeColor=#457B9D;fontColor=#1D3557;labelBackgroundColor=#F1FAEE;" parent="1" target="t91lsTx7yEC4QI36TYoj-4" edge="1">
          <mxGeometry width="50" height="50" relative="1" as="geometry">
            <mxPoint x="90" y="350" as="sourcePoint" />
            <mxPoint x="140" y="300" as="targetPoint" />
          </mxGeometry>
        </mxCell>
        <mxCell id="t91lsTx7yEC4QI36TYoj-12" value="" style="endArrow=none;html=1;strokeColor=#457B9D;fontColor=#1D3557;labelBackgroundColor=#F1FAEE;" parent="1" target="t91lsTx7yEC4QI36TYoj-5" edge="1">
          <mxGeometry width="50" height="50" relative="1" as="geometry">
            <mxPoint x="90" y="385" as="sourcePoint" />
            <mxPoint x="140" y="335" as="targetPoint" />
          </mxGeometry>
        </mxCell>
        <mxCell id="t91lsTx7yEC4QI36TYoj-15" value="" style="endArrow=none;html=1;exitX=0.009;exitY=0.28;exitDx=0;exitDy=0;exitPerimeter=0;strokeColor=#457B9D;fontColor=#1D3557;labelBackgroundColor=#F1FAEE;" parent="1" source="t91lsTx7yEC4QI36TYoj-6" edge="1">
          <mxGeometry width="50" height="50" relative="1" as="geometry">
            <mxPoint x="50" y="470" as="sourcePoint" />
            <mxPoint x="100" y="420" as="targetPoint" />
          </mxGeometry>
        </mxCell>
        <mxCell id="t91lsTx7yEC4QI36TYoj-16" value="" style="endArrow=classic;html=1;strokeColor=#457B9D;fontColor=#1D3557;labelBackgroundColor=#F1FAEE;" parent="1" target="t91lsTx7yEC4QI36TYoj-7" edge="1">
          <mxGeometry width="50" height="50" relative="1" as="geometry">
            <mxPoint x="330" y="250" as="sourcePoint" />
            <mxPoint x="380" y="200" as="targetPoint" />
          </mxGeometry>
        </mxCell>
        <mxCell id="t91lsTx7yEC4QI36TYoj-17" value="" style="endArrow=classic;html=1;exitX=1;exitY=0.5;exitDx=0;exitDy=0;strokeColor=#457B9D;fontColor=#1D3557;labelBackgroundColor=#F1FAEE;" parent="1" source="t91lsTx7yEC4QI36TYoj-4" target="t91lsTx7yEC4QI36TYoj-8" edge="1">
          <mxGeometry width="50" height="50" relative="1" as="geometry">
            <mxPoint x="370" y="310" as="sourcePoint" />
            <mxPoint x="420" y="260" as="targetPoint" />
          </mxGeometry>
        </mxCell>
        <mxCell id="t91lsTx7yEC4QI36TYoj-18" value="" style="endArrow=classic;html=1;exitX=0.929;exitY=0.765;exitDx=0;exitDy=0;exitPerimeter=0;entryX=0.067;entryY=0.32;entryDx=0;entryDy=0;entryPerimeter=0;strokeColor=#457B9D;fontColor=#1D3557;labelBackgroundColor=#F1FAEE;" parent="1" source="t91lsTx7yEC4QI36TYoj-4" target="t91lsTx7yEC4QI36TYoj-9" edge="1">
          <mxGeometry width="50" height="50" relative="1" as="geometry">
            <mxPoint x="370" y="310" as="sourcePoint" />
            <mxPoint x="420" y="260" as="targetPoint" />
          </mxGeometry>
        </mxCell>
        <mxCell id="t91lsTx7yEC4QI36TYoj-19" value="&amp;lt;&amp;lt;extend&amp;gt;&amp;gt;" style="text;html=1;strokeColor=none;fillColor=none;align=center;verticalAlign=middle;whiteSpace=wrap;rounded=0;sketch=0;rotation=-20;fontColor=#1D3557;" parent="1" vertex="1">
          <mxGeometry x="385" y="190" width="40" height="20" as="geometry" />
        </mxCell>
        <mxCell id="t91lsTx7yEC4QI36TYoj-20" value="&amp;lt;&amp;lt;extend&amp;gt;&amp;gt;" style="text;html=1;strokeColor=none;fillColor=none;align=center;verticalAlign=middle;whiteSpace=wrap;rounded=0;sketch=0;rotation=0;fontColor=#1D3557;" parent="1" vertex="1">
          <mxGeometry x="425.0040538489749" y="239.99732907437246" width="40" height="20" as="geometry" />
        </mxCell>
        <mxCell id="t91lsTx7yEC4QI36TYoj-21" value="&amp;lt;&amp;lt;extend&amp;gt;&amp;gt;" style="text;html=1;strokeColor=none;fillColor=none;align=center;verticalAlign=middle;whiteSpace=wrap;rounded=0;sketch=0;rotation=30;fontColor=#1D3557;" parent="1" vertex="1">
          <mxGeometry x="425.0040538489749" y="329.9973290743725" width="40" height="20" as="geometry" />
        </mxCell>
      </root>
    </mxGraphModel>
  </diagram>
</mxfile>
